<?xml version="1.0" standalone="no"?>
<!DOCTYPE svg PUBLIC "-//W3C//DTD SVG 20010904//EN"
 "http://www.w3.org/TR/2001/REC-SVG-20010904/DTD/svg10.dtd">
<svg version="1.0" xmlns="http://www.w3.org/2000/svg"
 width="500.000000pt" height="500.000000pt" viewBox="0 0 500.000000 500.000000"
 preserveAspectRatio="xMidYMid meet">

<g transform="translate(0.000000,500.000000) scale(0.100000,-0.100000)"
fill="#000000" stroke="none">
<path d="M2310 4150 c-513 -72 -933 -334 -1204 -752 -321 -494 -353 -1110 -86
-1643 83 -165 173 -288 315 -430 186 -187 391 -314 637 -396 164 -55 288 -78
458 -85 281 -12 523 36 775 155 480 227 821 664 925 1186 11 55 23 165 26 245
16 374 -92 731 -313 1043 -78 110 -266 296 -383 380 -179 127 -415 228 -646
277 -113 24 -396 35 -504 20z m525 -50 c1018 -221 1579 -1316 1159 -2264 -211
-475 -653 -832 -1161 -937 -623 -128 -1261 115 -1644 626 -149 200 -257 454
-300 706 -28 163 -23 460 10 607 62 279 195 540 382 749 229 257 556 446 884
512 149 30 145 29 365 26 165 -2 225 -7 305 -25z"/>
<path d="M2469 3894 c2 -40 -1 -59 -10 -65 -9 -6 6 -9 39 -9 47 0 52 2 52 23
-1 20 -2 20 -11 5 -5 -10 -19 -18 -30 -18 -18 0 -20 6 -18 57 2 44 -1 59 -12
61 -11 2 -13 -9 -10 -54z"/>
<path d="M2230 3911 c0 -12 4 -21 9 -21 15 0 22 -33 9 -42 -10 -6 -8 -8 5 -8
10 0 20 -7 23 -15 4 -8 16 -15 28 -15 12 0 16 4 11 8 -6 4 -23 28 -38 54 -32
55 -47 67 -47 39z"/>
<path d="M2713 3883 c-1 -23 -7 -52 -13 -63 -9 -17 -8 -20 8 -20 16 0 20 10
25 52 4 28 12 55 18 58 6 4 1 9 -13 12 -21 4 -23 0 -25 -39z"/>
<path d="M2214 3835 c-8 -33 -7 -45 1 -45 7 0 12 19 13 45 1 25 1 45 -1 45 -1
0 -7 -20 -13 -45z"/>
<path d="M1981 3853 c-27 -10 -39 -18 -31 -23 7 -4 20 -30 29 -57 l17 -50 37
14 c20 9 37 21 37 29 0 10 -7 7 -22 -8 -20 -20 -22 -20 -35 -3 -17 24 -17 35
2 35 8 0 15 8 14 18 0 10 -3 12 -6 5 -7 -18 -30 -16 -37 3 -9 22 3 37 25 31
12 -3 19 0 19 9 0 8 -1 14 -2 13 -2 0 -23 -8 -47 -16z"/>
<path d="M2922 3865 c4 -4 -4 -31 -17 -61 -21 -46 -22 -54 -8 -54 9 0 14 3 10
6 -7 8 13 64 23 64 4 0 13 -22 20 -50 7 -27 16 -50 21 -50 4 0 16 23 26 50 10
28 21 50 26 50 4 0 5 5 2 10 -7 12 -26 14 -23 3 1 -5 -3 -24 -11 -43 l-13 -35
-16 54 c-10 30 -24 57 -32 59 -8 3 -12 1 -8 -3z"/>
<path d="M1764 3745 c-10 -8 -14 -15 -7 -15 7 0 17 -9 23 -20 8 -15 6 -21 -11
-30 -24 -13 -53 4 -45 27 4 10 1 11 -14 3 -18 -10 -18 -12 10 -54 17 -24 30
-49 30 -55 0 -14 13 -14 27 0 8 8 6 16 -9 31 -20 20 -20 20 3 36 20 14 23 14
35 -3 7 -10 11 -22 8 -26 -8 -13 9 -10 28 4 15 12 15 14 -1 24 -10 6 -27 30
-38 52 -19 37 -22 39 -39 26z"/>
<path d="M3173 3728 c-12 -6 -27 -23 -33 -39 -10 -24 -10 -33 4 -54 9 -14 22
-25 28 -25 6 0 3 9 -6 19 -20 22 -15 50 14 76 24 22 51 16 66 -13 8 -16 13
-19 16 -11 11 32 -52 65 -89 47z"/>
<path d="M3210 3642 c0 -10 -5 -23 -12 -30 -9 -9 -9 -12 0 -12 7 0 20 8 31 19
18 18 18 18 0 30 -16 9 -19 8 -19 -7z"/>
<path d="M2270 3610 c-216 -46 -396 -140 -554 -290 -105 -100 -234 -280 -224
-312 2 -6 19 15 37 48 136 239 380 433 648 514 82 24 247 50 323 50 135 0 307
-39 455 -102 203 -88 416 -285 528 -488 10 -18 20 -30 24 -27 10 11 -87 162
-158 245 -153 181 -409 326 -648 367 -116 21 -324 18 -431 -5z"/>
<path d="M2768 2713 c7 -3 16 -2 19 1 4 3 -2 6 -13 5 -11 0 -14 -3 -6 -6z"/>
<path d="M2842 2713 c16 -8 16 -10 -3 -38 -11 -17 -49 -86 -84 -155 -73 -145
-128 -220 -180 -244 -51 -25 -36 -32 17 -8 47 20 87 65 133 147 16 28 35 58
43 68 8 9 12 17 8 17 -8 0 71 159 90 181 11 12 29 15 67 13 l52 -3 -45 8 c-25
5 -61 11 -80 15 -19 3 -27 3 -18 -1z"/>
<path d="M1367 2696 c-10 -8 -51 -22 -90 -30 -40 -9 -79 -21 -87 -27 -11 -8
-9 -9 10 -3 14 4 52 13 85 19 33 7 69 16 79 20 19 8 19 7 -1 -21 -12 -16 -67
-81 -123 -144 -130 -148 -185 -227 -169 -247 7 -8 15 -10 19 -6 3 4 28 34 54
66 27 32 49 67 50 77 1 11 38 61 83 113 90 104 133 163 133 183 0 18 -20 17
-43 0z"/>
<path d="M1525 2667 c-27 -14 -78 -45 -112 -70 -71 -53 -206 -174 -212 -191
-2 -6 26 17 63 52 129 120 284 222 339 222 26 0 21 -13 -25 -70 -76 -94 -99
-130 -105 -165 -8 -48 8 -45 73 14 30 27 82 63 115 80 34 17 56 31 49 31 -24
0 -127 -61 -173 -104 -46 -41 -57 -44 -38 -7 6 10 40 53 76 97 49 58 65 86 63
104 -4 35 -49 37 -113 7z"/>
<path d="M2216 2658 c-44 -9 -91 -36 -152 -85 -23 -18 -52 -33 -65 -34 -19 0
-20 -2 -7 -7 14 -6 10 -16 -31 -69 -80 -102 -98 -160 -53 -169 7 -1 8 0 2 3
-28 14 11 87 97 183 44 49 46 50 106 52 l62 1 -55 6 -55 6 53 42 c58 46 110
67 157 61 44 -5 42 -44 -4 -75 -39 -26 -34 -30 9 -8 16 9 33 27 36 40 12 47
-28 68 -100 53z"/>
<path d="M3115 2661 c-46 -12 -112 -48 -154 -86 -23 -21 -50 -36 -67 -36 -24
-1 -25 -2 -6 -6 22 -4 21 -6 -19 -51 -81 -92 -112 -178 -69 -189 13 -4 13 -3
1 5 -19 14 -1 57 52 126 67 86 86 100 139 104 l48 3 -49 -62 c-78 -96 -102
-166 -61 -176 12 -4 12 -3 2 5 -20 14 4 63 77 155 l61 77 68 1 c64 2 65 2 20
8 -26 4 -50 9 -53 13 -7 7 74 68 92 68 19 0 16 -8 -14 -37 -24 -22 -25 -24 -5
-14 13 7 28 24 35 39 15 36 25 42 68 42 70 0 73 -56 6 -85 -18 -8 -24 -14 -15
-15 9 0 30 12 47 26 54 45 33 88 -41 84 -84 -4 -93 -4 -113 2 -11 3 -33 2 -50
-1z m61 -24 c-11 -7 -43 -31 -72 -54 -47 -37 -60 -43 -101 -43 l-48 1 38 34
c53 46 114 74 162 74 35 0 38 -2 21 -12z"/>
<path d="M1144 2608 l-19 -23 23 19 c21 18 27 26 19 26 -2 0 -12 -10 -23 -22z"/>
<path d="M1121 2564 c0 -11 3 -14 6 -6 3 7 2 16 -1 19 -3 4 -6 -2 -5 -13z"/>
<path d="M1730 2560 c0 -11 -15 -37 -33 -57 -120 -137 -157 -223 -95 -223 20
0 21 1 4 13 -17 13 -17 15 -2 45 9 18 48 69 86 113 70 80 84 112 55 123 -10 4
-15 -1 -15 -14z"/>
<path d="M2198 2543 c6 -2 18 -2 25 0 6 3 1 5 -13 5 -14 0 -19 -2 -12 -5z"/>
<path d="M3228 2543 c7 -3 16 -2 19 1 4 3 -2 6 -13 5 -11 0 -14 -3 -6 -6z"/>
<path d="M1888 2498 c-13 -13 -17 -18 -8 -12 8 6 24 16 35 22 11 6 15 12 8 12
-7 0 -22 -10 -35 -22z"/>
<path d="M2795 2510 c-3 -6 1 -7 9 -4 18 7 21 14 7 14 -6 0 -13 -4 -16 -10z"/>
<path d="M3478 2433 c7 -3 16 -2 19 1 4 3 -2 6 -13 5 -11 0 -14 -3 -6 -6z"/>
<path d="M2211 2414 c-18 -13 -22 -23 -17 -46 7 -37 -7 -65 -36 -71 -20 -4
-20 -4 4 -6 39 -2 61 25 54 65 -5 26 -2 35 15 47 12 9 28 13 37 10 10 -4 13
-2 8 5 -10 17 -38 15 -65 -4z"/>
<path d="M2363 2404 c-15 -14 -22 -23 -15 -19 10 5 13 -2 10 -31 -2 -29 -9
-42 -28 -51 -19 -10 -21 -13 -7 -13 40 0 57 19 57 65 0 52 27 77 54 49 9 -8
16 -12 16 -7 0 15 -23 33 -41 33 -10 0 -31 -12 -46 -26z"/>
<path d="M3308 2399 c-18 -18 -25 -26 -15 -18 17 12 18 10 15 -26 -2 -30 -9
-42 -28 -52 l-25 -13 26 0 c36 0 54 25 50 70 -2 31 2 41 20 51 19 10 25 9 36
-7 7 -10 13 -13 13 -8 0 16 -22 34 -42 34 -10 0 -32 -14 -50 -31z"/>
<path d="M3717 2368 c-20 -35 -33 -65 -31 -68 3 -2 28 20 57 50 29 29 44 48
34 40 -17 -12 -18 -11 -12 13 12 47 -12 30 -48 -35z"/>
<path d="M3843 2421 c17 -6 15 -10 -12 -45 -30 -38 -41 -76 -21 -76 6 0 10 5
10 11 0 6 16 33 35 59 37 50 36 60 -4 59 -21 0 -23 -2 -8 -8z"/>
<path d="M1753 2385 c-25 -25 -34 -41 -31 -61 2 -15 8 -29 14 -31 7 -2 10 5 7
20 -6 29 50 87 84 87 14 0 21 4 18 10 -13 21 -58 9 -92 -25z"/>
<path d="M3593 2410 c-12 -5 -28 -19 -36 -32 -18 -28 -34 -102 -18 -78 10 13
12 13 21 0 6 -9 10 -10 10 -3 0 6 -5 15 -12 19 -7 5 -2 15 18 32 29 24 29 24
4 19 l-25 -6 24 20 c25 21 71 26 71 7 0 -6 3 -8 6 -5 9 8 -15 37 -30 36 -6 0
-21 -4 -33 -9z"/>
<path d="M2033 2370 c-26 -45 -30 -80 -8 -80 9 0 12 6 9 15 -3 8 3 31 15 50
12 20 21 40 21 46 0 20 -16 7 -37 -31z"/>
<path d="M3057 2369 c-16 -22 -26 -46 -23 -54 8 -21 40 -18 67 6 l24 21 -25
-16 c-51 -33 -65 -15 -25 32 25 29 32 52 18 52 -5 0 -21 -19 -36 -41z"/>
<path d="M3430 2370 c-27 -53 -26 -80 3 -79 16 1 17 3 5 6 -19 5 -15 23 14 65
20 29 23 48 8 48 -5 0 -19 -18 -30 -40z"/>
<path d="M3160 2375 c-13 -14 -25 -34 -27 -45 -1 -11 -4 -25 -5 -32 -2 -6 6
-13 17 -15 16 -3 17 -2 5 6 -12 8 -9 17 18 55 18 24 32 47 32 50 0 13 -18 5
-40 -19z"/>
<path d="M2291 2331 c-7 -5 -12 -14 -10 -20 2 -6 10 -2 17 9 14 22 13 23 -7
11z"/>
<path d="M2121 2314 c0 -11 3 -14 6 -6 3 7 2 16 -1 19 -3 4 -6 -2 -5 -13z"/>
<path d="M1820 2310 c-9 -6 -10 -10 -3 -10 6 0 15 5 18 10 8 12 4 12 -15 0z"/>
<path d="M1778 2293 c7 -3 16 -2 19 1 4 3 -2 6 -13 5 -11 0 -14 -3 -6 -6z"/>
<path d="M2502 2274 c10 -10 20 -16 22 -13 3 3 -5 11 -17 18 -21 13 -21 12 -5
-5z"/>
<path d="M1450 2076 c0 -23 73 -159 126 -233 108 -154 294 -305 464 -379 252
-109 563 -124 818 -38 277 93 526 311 661 582 18 35 30 69 28 75 -2 7 -23 -26
-47 -73 -270 -539 -898 -769 -1449 -531 -236 101 -448 305 -557 536 -37 76
-44 86 -44 61z"/>
<path d="M3070 1307 c-17 -8 -25 -21 -25 -37 0 -22 5 -26 45 -30 31 -3 45 -10
45 -20 0 -11 -10 -15 -32 -14 -30 2 -32 0 -21 -20 7 -13 13 -16 16 -8 2 6 12
12 22 12 11 0 24 9 30 21 16 30 -4 49 -51 49 -33 0 -39 3 -39 21 0 18 4 21 30
16 23 -5 28 -3 23 8 -6 18 -11 18 -43 2z"/>
<path d="M1843 1294 c-3 -9 2 -32 12 -51 11 -21 15 -37 9 -43 -11 -11 -27 -2
-41 24 -8 15 -11 16 -16 3 -4 -10 6 -21 28 -33 28 -15 36 -16 49 -5 21 18 20
33 -4 64 -25 32 -25 47 0 47 12 0 24 -9 29 -22 5 -15 10 -18 15 -9 10 16 -21
40 -52 41 -12 0 -25 -7 -29 -16z"/>
<path d="M2053 1215 c-3 -9 -3 -19 1 -22 3 -4 6 -1 6 5 0 7 9 12 19 12 18 0
19 -2 3 -50 -9 -27 -21 -50 -26 -50 -16 0 16 -20 32 -20 7 0 10 5 7 10 -7 12
12 79 27 95 6 7 14 3 24 -9 11 -16 14 -17 14 -4 0 10 -17 22 -47 32 -57 19
-52 19 -60 1z"/>
<path d="M2830 1209 c-17 -7 -21 -12 -12 -18 7 -4 17 -30 24 -58 l12 -50 42
14 c28 10 41 19 38 28 -4 10 -10 9 -25 -6 -23 -23 -39 -17 -39 13 0 14 5 18
15 14 9 -3 15 0 15 9 0 19 -17 28 -23 13 -4 -10 -8 -9 -16 2 -19 27 -13 43 14
38 14 -3 25 -1 25 3 0 12 -39 10 -70 -2z"/>
<path d="M2323 1160 c-45 -18 -44 -97 1 -119 25 -12 31 -11 55 6 43 33 41 91
-4 111 -14 7 -27 12 -28 11 -1 0 -12 -4 -24 -9z m56 -31 c12 -22 12 -29 0 -54
-17 -35 -32 -41 -53 -20 -21 21 -21 63 1 87 20 23 34 19 52 -13z"/>
<path d="M2650 1151 c5 -11 10 -32 10 -47 l0 -28 -43 42 c-23 23 -49 42 -57
42 -11 0 -12 -2 -2 -8 7 -5 13 -33 15 -65 1 -35 6 -57 13 -57 9 0 9 11 3 38
-13 58 -12 59 34 14 23 -23 45 -42 47 -42 3 0 5 29 5 65 0 56 -3 65 -18 65
-14 0 -16 -4 -7 -19z"/>
</g>
</svg>
