<?xml version="1.0" standalone="no"?>
<!DOCTYPE svg PUBLIC "-//W3C//DTD SVG 20010904//EN"
 "http://www.w3.org/TR/2001/REC-SVG-20010904/DTD/svg10.dtd">
<svg version="1.0" xmlns="http://www.w3.org/2000/svg"
 width="70" height="70" viewBox="0 0 500.000000 500.000000"
 preserveAspectRatio="xMidYMid meet">

<g transform="translate(0.000000,500.000000) scale(0.100000,-0.100000)"
fill="#000000" stroke="none">
<path d="M627 3133 c-4 -3 -7 -291 -7 -640 l0 -633 1880 0 1880 0 0 640 0 640
-1873 0 c-1031 0 -1877 -3 -1880 -7z m3743 -638 l0 -625 -1870 0 -1870 0 0
625 0 625 1870 0 1870 0 0 -625z"/>
<path d="M1619 2942 c29 -9 46 -52 102 -272 22 -85 42 -156 44 -158 2 -3 7 8
11 22 4 18 -11 88 -47 219 l-54 192 -40 2 c-30 1 -34 0 -16 -5z"/>
<path d="M1877 2936 c-3 -8 -2 -29 3 -46 16 -56 52 -297 48 -326 -2 -20 -10
-30 -28 -35 -15 -4 4 -7 50 -7 53 -1 69 2 53 8 -33 14 -41 37 -68 202 -14 84
-28 165 -31 180 -5 23 -2 27 23 31 24 3 23 4 -8 6 -24 0 -39 -4 -42 -13z"/>
<path d="M2110 2930 c6 -12 10 -91 9 -206 -1 -179 -2 -186 -23 -194 -17 -7
-15 -9 17 -9 l37 -1 0 210 0 210 68 0 c75 0 97 -13 104 -60 3 -21 6 -18 20 23
l17 47 -130 0 c-126 0 -129 -1 -119 -20z"/>
<path d="M2428 2940 c22 -9 22 -11 22 -205 0 -194 0 -196 -22 -205 -16 -6 20
-9 110 -9 123 -1 132 0 132 18 0 10 2 34 6 52 l5 34 -17 -30 c-28 -52 -53 -65
-121 -65 l-63 0 0 200 c0 199 0 201 23 210 17 7 8 9 -38 9 -46 0 -55 -2 -37
-9z"/>
<path d="M2753 2939 c15 -9 17 -30 17 -209 0 -181 -2 -199 -17 -203 -10 -3 7
-5 37 -5 42 -1 50 1 33 8 -23 9 -23 11 -23 205 0 194 0 196 23 205 17 7 10 9
-33 9 -42 0 -51 -2 -37 -10z"/>
<path d="M3084 2929 c15 -13 20 -28 19 -60 0 -24 1 -37 4 -29 3 8 13 35 22 60
l17 45 -41 0 c-40 0 -41 0 -21 -16z"/>
<path d="M3249 2921 c-55 -56 -30 -124 67 -180 94 -55 114 -77 114 -128 0 -33
-6 -50 -25 -68 -29 -30 -18 -33 18 -5 29 23 43 74 33 116 -6 22 -76 104 -76
89 0 -10 -71 35 -102 63 -38 35 -39 92 -2 121 15 12 21 21 15 21 -7 0 -26 -13
-42 -29z"/>
<path d="M3380 2942 c24 -7 40 -33 41 -66 l1 -31 13 30 c29 69 29 70 -23 71
-26 1 -40 -1 -32 -4z"/>
<path d="M2930 2920 c-13 -13 -20 -33 -20 -59 0 -51 33 -91 110 -132 79 -42
95 -61 95 -115 0 -57 -28 -85 -92 -95 l-48 -8 53 3 c44 3 59 9 84 33 55 55 37
140 -41 188 -120 75 -126 80 -135 117 -7 29 -6 42 8 62 20 31 14 34 -14 6z"/>
<path d="M2220 2825 c0 -7 -8 -18 -17 -24 -16 -9 -16 -11 -2 -28 9 -10 19 -25
22 -33 3 -8 6 11 6 43 1 31 -1 57 -4 57 -3 0 -5 -7 -5 -15z"/>
<path d="M1622 2770 c0 -14 2 -19 5 -12 2 6 2 18 0 25 -3 6 -5 1 -5 -13z"/>
<path d="M1612 2700 c0 -19 2 -27 5 -17 2 9 2 25 0 35 -3 9 -5 1 -5 -18z"/>
<path d="M3222 2625 l-2 -110 78 -1 c42 -1 61 1 42 3 -52 6 -86 22 -99 46 -6
12 -12 56 -14 97 -2 59 -3 51 -5 -35z"/>
<path d="M2221 2684 c0 -11 3 -14 6 -6 3 7 2 16 -1 19 -3 4 -6 -2 -5 -13z"/>
<path d="M2341 2674 c0 -11 3 -14 6 -6 3 7 2 16 -1 19 -3 4 -6 -2 -5 -13z"/>
<path d="M1597 2621 c-10 -56 -23 -80 -50 -91 -16 -6 -4 -9 43 -9 41 0 58 3
45 8 -16 6 -21 20 -25 72 l-5 64 -8 -44z"/>
<path d="M2681 2644 c0 -11 3 -14 6 -6 3 7 2 16 -1 19 -3 4 -6 -2 -5 -13z"/>
<path d="M2340 2602 c0 -39 -20 -62 -60 -71 -34 -8 -33 -8 18 -12 l52 -4 0 58
c0 31 -2 57 -5 57 -3 0 -5 -13 -5 -28z"/>
<path d="M2911 2554 c-1 -40 0 -40 29 -36 31 4 31 5 10 19 -12 8 -25 25 -30
37 -7 17 -9 13 -9 -20z"/>
<path d="M2178 2523 c7 -3 16 -2 19 1 4 3 -2 6 -13 5 -11 0 -14 -3 -6 -6z"/>
<path d="M1907 2003 c-4 -3 -7 -19 -7 -35 0 -24 4 -28 28 -27 23 2 24 2 5 6
-27 5 -31 23 -5 24 14 0 14 2 -3 9 -19 8 -19 8 5 18 22 10 23 11 4 11 -11 1
-24 -2 -27 -6z"/>
<path d="M2434 1996 c-15 -12 -17 -18 -8 -33 16 -25 54 -30 53 -6 0 10 -3 13
-6 6 -7 -18 -32 -16 -40 2 -3 9 2 22 13 30 11 8 16 15 13 15 -3 0 -14 -6 -25
-14z"/>
<path d="M2621 1996 c-9 -10 -9 -16 -1 -21 6 -4 14 -4 17 -1 4 3 1 6 -7 6 -10
0 -10 3 0 15 7 8 10 15 7 15 -2 0 -10 -6 -16 -14z"/>
<path d="M2728 1998 c9 -9 15 -9 24 0 9 9 7 12 -12 12 -19 0 -21 -3 -12 -12z"/>
<path d="M2865 1990 c21 -24 26 -25 19 -6 -3 8 -13 17 -22 21 -13 5 -13 2 3
-15z"/>
<path d="M3070 1975 c0 -32 2 -35 28 -34 23 2 24 2 5 6 -27 5 -30 20 -5 26 16
4 16 5 0 6 -10 0 -18 5 -18 10 0 5 8 12 18 14 13 4 11 5 -5 6 -20 1 -23 -4
-23 -34z"/>
<path d="M3181 1996 c-9 -10 -9 -16 -1 -21 6 -4 14 -4 17 -1 4 3 1 6 -7 6 -10
0 -10 3 0 15 7 8 10 15 7 15 -2 0 -10 -6 -16 -14z"/>
<path d="M1782 1970 c0 -19 2 -27 5 -17 2 9 13 17 23 17 10 0 21 -8 23 -17 3
-10 5 -2 5 17 0 19 -2 29 -5 23 -2 -7 -13 -13 -23 -13 -10 0 -21 6 -23 13 -3
6 -5 -4 -5 -23z"/>
<path d="M2047 1969 c8 -16 17 -28 19 -26 7 6 -18 57 -27 57 -4 0 -1 -14 8
-31z"/>
<path d="M2131 1973 c-1 -28 2 -33 22 -32 15 1 17 3 5 6 -9 2 -19 16 -21 31
-4 24 -4 24 -6 -5z"/>
<path d="M2232 1970 c0 -19 2 -27 5 -17 2 9 2 25 0 35 -3 9 -5 1 -5 -18z"/>
<path d="M2301 1968 c1 -26 3 -28 6 -10 l5 24 24 -23 24 -22 -1 34 c-1 25 -3
28 -6 10 l-5 -23 -14 21 c-22 30 -34 26 -33 -11z"/>
<path d="M2824 1985 c-9 -23 3 -45 25 -45 11 0 22 4 25 9 3 4 -6 6 -21 3 -23
-4 -25 -2 -21 22 6 28 1 35 -8 11z"/>
<path d="M2951 1969 c1 -27 3 -29 6 -10 l5 25 19 -25 19 -24 -1 35 c-1 19 -3
27 -6 17 -5 -18 -6 -18 -24 -1 -18 17 -19 16 -18 -17z"/>
<path d="M2016 1965 c-9 -26 -7 -32 5 -12 6 10 9 21 6 23 -2 3 -7 -2 -11 -11z"/>
<path d="M2650 1962 c0 -6 -8 -13 -17 -15 -16 -4 -16 -5 -1 -6 18 -1 34 16 24
26 -3 4 -6 1 -6 -5z"/>
<path d="M3210 1962 c0 -6 -8 -13 -17 -15 -16 -4 -16 -5 -1 -6 18 -1 34 16 24
26 -3 4 -6 1 -6 -5z"/>
</g>
</svg>
